# xmcd CD database file
#
# Track frame offsets:
#	150
#	20581
#	38647
#	65486
#	87298
#	107807
#	123509
#	147817
#	169318
#	191105
#	213909
#	237004
#
# Disc length: 3457 seconds
#
# Revision: 0
# Processed by: cddbd v1.5.1PL0 Copyright (c) Steve Scherf et al.
# Submitted via: CDex 1.51
#
DISCID=a60d7f0c
DTITLE=Various Salsa - Salsa Superstars
DYEAR=1997
DGENRE=Salsa
TTITLE0=01 - Jerry Rivera - Fresco
TTITLE1=02 - Rubén Blades - Chilam Balam
TTITLE2=03 - Grupo Niche - Gotas de Lluvia
TTITLE3=04 - Luis Enrique - Quién eres Tú
TTITLE4=05 - DLG - No Morirá (No Matter what)
TTITLE5=06 - Gilberto Santa Rosa - Represento
TTITLE6=07 - Joe Arroyo - Mi Libertad
TTITLE7=08 - Rey Ruiz - Mienteme Otra Vez
TTITLE8=09 - Willy Chirino - Cómo será
TTITLE9=10 - Giro - Mi Forma de Sentir
TTITLE10=11 - Víctor Manuelle - Hay que Poner el Alma
TTITLE11=12 - Ommar - Yo Tengo una Amiga
EXTD=YEAR: 1997
EXTT0=
EXTT1=
EXTT2=
EXTT3=
EXTT4=
EXTT5=
EXTT6=
EXTT7=
EXTT8=
EXTT9=
EXTT10=
EXTT11=
PLAYORDER=
